<?xml version="1.0" encoding="UTF-8" standalone="no"?>
<!-- Created with Inkscape (http://www.inkscape.org/) -->

<svg
   width="38.603916mm"
   height="62.779003mm"
   viewBox="0 0 38.603916 62.779003"
   version="1.1"
   id="svg1"
   xml:space="preserve"
   xmlns="http://www.w3.org/2000/svg"
   xmlns:svg="http://www.w3.org/2000/svg"><defs
     id="defs1" /><g
     id="layer1"
     transform="translate(-98.333608,-86.185488)"><path
       style="fill:#ececec;fill-opacity:1;stroke:#a8a8a8;stroke-width:1.85208;stroke-dasharray:none;stroke-opacity:1"
       d="m 130.94546,88.914404 c -5.57948,-1.952937 -16.64228,-2.29314 -23.65144,-1.061525 -3.2861,0.577421 -7.92624,1.87412 -8.009255,5.496792 -0.07496,3.271226 -0.06034,4.663406 1.067425,12.303819 0.84611,5.73225 1.8119,11.38666 2.8898,17.0818 1.05227,5.55958 2.06297,11.16427 2.96178,16.75093 0.48851,3.03629 0.83954,6.52082 4.09048,7.87176 1.30963,0.54423 2.68476,0.50061 4.07559,0.52529 3.71582,0.0659 11.39211,1.04351 12.89603,-2.92164 1.13951,-3.00437 1.75747,-7.64612 2.36633,-10.76697 1.66014,-8.50956 3.26458,-17.03234 4.85617,-25.555 1.15337,-6.17607 4.07791,-17.057809 -3.54291,-19.725256 z"
       id="path1" /><path
       style="fill:#ffffff;fill-opacity:0.647943;stroke:none;stroke-width:0.739715;stroke-opacity:1"
       d="m 127.86335,92.927288 c -4.12722,-1.444616 -11.397,-1.892026 -16.58178,-0.980983 -2.43078,0.427128 -6.42637,0.665203 -7.81689,2.956765 -1.53009,2.521559 -0.0654,6.81526 0.0759,9.84825 0.19965,4.28153 0.81412,9.04625 1.61145,13.25903 0.77839,4.1125 1.72177,8.19312 2.38664,12.32566 0.36135,2.24599 1.13512,12.87868 3.53989,13.87798 0.96875,0.40258 3.35626,0.23981 4.38508,0.25807 2.74864,0.0488 8.42691,0.7719 9.53938,-2.16118 0.84292,-2.22238 3.06977,-13.12382 3.52014,-15.43235 1.22803,-6.29465 2.41487,-12.59908 3.59219,-18.90341 0.85316,-4.56853 1.38518,-13.074681 -4.25205,-15.047832 z"
       id="path1-9" /></g></svg>
